<?xml version="1.0" standalone="no"?>
<!DOCTYPE svg PUBLIC "-//W3C//DTD SVG 20010904//EN"
 "http://www.w3.org/TR/2001/REC-SVG-20010904/DTD/svg10.dtd">
<svg version="1.0" xmlns="http://www.w3.org/2000/svg"
 width="512.000000pt" height="512.000000pt" viewBox="0 0 512.000000 512.000000"
 preserveAspectRatio="xMidYMid meet">

<g transform="translate(0.000000,512.000000) scale(0.100000,-0.100000)"
fill="#000000" stroke="none">
<path d="M850 4696 l0 -124 93 -37 c50 -21 98 -39 105 -42 9 -4 12 10 12 51
l0 56 1875 0 1875 0 0 -2027 0 -2028 -1867 2 c-1028 2 -1870 3 -1873 3 -3 0
-4 282 -2 627 1 430 -1 630 -8 637 -14 15 -203 85 -212 79 -10 -5 -10 -465 -1
-1090 l6 -473 2089 0 2088 0 0 2245 0 2245 -2090 0 -2090 0 0 -124z"/>
<path d="M470 4223 c-102 -147 -203 -292 -224 -322 -21 -31 -57 -82 -78 -113
-22 -31 -38 -60 -35 -65 3 -4 87 -40 186 -78 l181 -70 0 -88 0 -89 -187 -266
c-103 -146 -187 -273 -187 -282 0 -14 111 -182 359 -541 l90 -131 286 -111
287 -112 138 -195 c77 -107 147 -208 157 -223 l18 -28 95 138 c53 76 143 209
202 295 59 86 112 157 119 158 6 0 72 -29 147 -64 l136 -65 0 -575 0 -576 808
0 c445 0 978 3 1185 7 l377 6 0 406 -1 406 -175 235 c-97 129 -298 398 -447
598 -149 199 -273 362 -276 361 -3 0 -76 -93 -161 -207 -85 -113 -220 -292
-300 -397 -80 -104 -207 -271 -283 -371 l-137 -181 0 -166 0 -167 155 0 155 0
0 134 0 133 188 244 c103 134 229 299 280 366 52 68 98 125 103 128 4 3 141
-172 304 -388 l295 -394 0 -242 0 -241 -870 0 -870 0 0 521 0 521 -302 148
c-167 81 -460 225 -652 319 -302 148 -404 194 -361 163 6 -4 85 -90 175 -192
91 -102 193 -216 228 -253 34 -38 62 -74 62 -80 0 -13 -166 -230 -178 -234 -4
-1 -36 39 -72 89 l-65 91 -285 112 -285 112 -69 99 c-152 219 -226 331 -226
344 0 7 22 42 48 79 27 36 99 139 160 227 l112 162 0 220 0 220 -110 44 c-60
23 -110 48 -110 53 0 6 41 69 91 140 50 72 94 137 99 145 7 12 100 -22 527
-193 285 -114 523 -207 529 -207 6 0 56 61 110 135 55 74 102 135 105 135 3 0
127 -59 275 -131 148 -72 341 -166 429 -209 88 -43 249 -121 357 -174 109 -53
199 -96 201 -96 1 0 41 52 87 115 47 63 88 114 92 115 4 0 85 -104 180 -232
95 -127 336 -450 536 -717 l362 -485 0 208 0 208 -138 192 c-492 680 -634 876
-772 1069 -85 119 -157 216 -160 216 -5 1 -107 -125 -224 -276 l-48 -62 -32
13 c-17 8 -143 69 -281 136 -582 285 -943 460 -948 460 -3 0 -53 -65 -112
-144 l-107 -144 -37 13 c-20 7 -255 101 -523 209 -268 108 -491 196 -495 196
-5 -1 -91 -121 -193 -267z"/>
</g>
</svg>
