<?xml version="1.0" standalone="no"?>
<!DOCTYPE svg PUBLIC "-//W3C//DTD SVG 20010904//EN"
 "http://www.w3.org/TR/2001/REC-SVG-20010904/DTD/svg10.dtd">

<svg version="1.0" xmlns="http://www.w3.org/2000/svg"
    width="840.000000pt" height="850.000000pt" viewBox="0 0 840.000000 850.000000"
    preserveAspectRatio="xMidYMid meet">

    <g transform="translate(0.000000,850.000000) scale(0.100000,-0.100000)" fill="#000000" stroke="none">

        <path fill="#0081af" d="M1060 7130 l-64 -58 49 -54 c227 -247 489 -518 499 -518 7 0 43 27
        80 61 l66 61 -213 225 c-116 124 -236 252 -265 284 -30 33 -61 59 -70 59 -10
        -1 -46 -27 -82 -60z"/>

        <path fill="#0081af" d="M721 6669 c-80 -16 -124 -51 -220 -179 -50 -66 -97 -133 -105 -149
        -14 -26 -14 -30 2 -43 27 -24 452 -332 543 -394 l83 -56 28 33 c48 57 80 117
        71 133 -4 7 -45 42 -91 75 -46 34 -82 65 -80 70 2 4 23 46 47 93 49 96 57 156
        32 243 -35 120 -178 200 -310 174z m108 -205 c49 -41 39 -102 -28 -172 -20
        -20 -24 -21 -49 -8 -15 8 -45 30 -66 48 l-40 35 23 36 c29 48 77 87 106 87 13
        0 37 -12 54 -26z"/>

        <path fill="#0081af" d="M7166 6618 c-102 -67 -127 -156 -86 -309 47 -177 47 -169 21 -190
        -23 -19 -25 -19 -54 -2 -57 34 -72 66 -70 148 l2 74 -77 31 c-54 23 -81 30
        -92 23 -24 -16 -42 -100 -35 -173 23 -254 293 -410 456 -263 22 20 48 50 56
        67 23 44 20 181 -7 271 -25 86 -26 143 -4 152 22 8 44 -6 72 -48 19 -28 22
        -41 17 -81 l-7 -48 67 -30 c37 -16 75 -30 86 -30 31 0 53 56 53 135 0 93 -38
        178 -105 239 -54 49 -102 66 -186 66 -50 0 -67 -5 -107 -32z"/>

        <path fill="#0081af" d="M4024 8303 c-12 -2 -24 -13 -27 -23 -3 -11 -1 -106 5 -212 12 -243 9
        -320 -16 -347 -28 -31 -92 -45 -136 -32 -72 21 -73 24 -83 294 -10 283 -12
        305 -34 309 -28 5 -161 -7 -170 -15 -15 -15 8 -541 27 -608 15 -53 73 -114
        142 -148 56 -28 70 -31 157 -31 104 0 148 14 217 66 40 31 82 98 95 152 5 20
        6 164 2 320 l-6 282 -76 -1 c-42 -1 -86 -4 -97 -6z"/>

        <path fill="#0081af" d="M4713 8238 c-7 -10 -146 -587 -178 -741 -4 -21 14 -29 112 -52 51
        -12 68 -13 74 -3 4 6 17 49 28 94 29 115 37 134 60 134 42 0 62 -33 98 -156
        18 -65 39 -124 46 -131 12 -13 91 -35 165 -48 32 -5 42 -4 42 7 0 7 -16 72
        -35 143 -43 160 -43 170 -6 189 16 9 45 35 65 58 112 130 74 338 -75 413 -38
        20 -347 105 -380 105 -3 0 -11 -6 -16 -12z m296 -250 c76 -38 82 -111 13 -151
        -29 -17 -40 -18 -85 -9 -29 6 -65 15 -81 22 -28 10 -29 12 -23 63 3 28 10 65
        16 81 11 28 13 29 63 23 28 -4 72 -17 97 -29z"/>

        <path fill="#0081af" d="M2945 8170 c-77 -21 -196 -56 -265 -77 l-125 -39 1 -39 c2 -57 22
        -125 40 -132 9 -3 52 2 95 12 48 11 83 15 89 9 4 -5 34 -97 65 -204 31 -107
        68 -230 81 -272 28 -86 31 -88 109 -67 75 19 95 30 95 53 0 11 -33 140 -74
        286 -41 145 -72 268 -70 272 3 4 43 19 89 33 98 30 98 30 62 135 -13 38 -28
        66 -37 67 -8 1 -78 -15 -155 -37z"/>

        <path fill="#0081af" d="M5727 7847 c-134 -248 -317 -608 -317 -622 0 -20 423 -230 446 -221
        18 7 79 130 72 147 -3 8 -60 43 -127 78 -66 36 -121 69 -121 73 0 7 37 87 45
        96 1 1 54 -23 119 -53 64 -30 120 -55 125 -55 10 0 81 135 81 154 0 6 -48 36
        -106 66 -59 30 -109 61 -111 68 -6 13 15 69 28 78 4 2 44 -14 89 -36 44 -22
        103 -49 130 -60 l49 -19 19 27 c28 39 62 109 62 126 0 10 -81 56 -219 126
        l-220 110 -44 -83z"/>

        <path fill="#0081af" d="M1930 7756 c-196 -54 -313 -229 -298 -446 10 -132 101 -259 230 -320
        59 -28 71 -30 179 -30 109 0 119 2 177 31 115 57 197 166 222 297 18 91 17 92
        -93 92 l-94 0 -11 -51 c-44 -189 -254 -237 -375 -87 -60 75 -45 201 33 272 48
        43 97 57 191 54 l73 -3 39 67 c22 37 37 74 34 82 -9 23 -131 56 -201 55 -33 0
        -81 -6 -106 -13z"/>

        <path fill="#0081af" d="M6570 7351 c-87 -27 -153 -95 -171 -176 -15 -68 2 -129 70 -247 63
        -109 68 -128 42 -152 -53 -48 -161 52 -161 149 0 44 -25 56 -120 58 l-65 2 -3
        -83 c-3 -101 14 -144 89 -227 72 -78 132 -105 237 -105 91 0 110 6 160 54 52
        48 62 75 62 170 0 82 -1 86 -55 191 -56 110 -66 151 -40 161 48 19 105 -42
        105 -113 l0 -40 69 -12 c105 -17 120 -15 127 15 11 43 -2 138 -26 183 -32 64
        -94 126 -148 149 -55 23 -136 34 -172 23z"/>

        <path fill="#0081af" d="M3845 7199 c-494 -35 -893 -146 -1318 -366 -275 -143 -513 -319 -748
        -553 -514 -512 -808 -1101 -920 -1840 -18 -121 -22 -188 -22 -405 0 -289 10
        -399 54 -620 131 -658 435 -1220 910 -1681 503 -488 1157 -797 1858 -879 146
        -17 493 -20 656 -5 601 55 1141 267 1648 646 130 98 488 456 583 584 151 202
        246 357 345 564 304 635 390 1353 244 2033 -111 513 -354 1016 -672 1385 -96
        112 -359 369 -458 447 -112 89 -349 245 -485 318 -392 212 -856 343 -1305 368
        -213 12 -254 12 -370 4z m525 -255 c429 -48 830 -189 1207 -424 407 -254 790
        -651 998 -1035 101 -186 119 -222 160 -319 133 -317 209 -648 223 -966 22
        -487 -38 -865 -202 -1272 -152 -378 -398 -749 -662 -997 -44 -40 -108 -101
        -144 -135 -134 -127 -354 -278 -563 -386 -315 -164 -640 -266 -1007 -316 -169
        -24 -545 -24 -723 0 -229 29 -570 112 -641 155 -17 10 -48 22 -68 25 -21 4
        -122 49 -225 101 -353 176 -617 374 -884 661 -87 94 -228 273 -281 359 -14 22
        -48 76 -75 120 -187 299 -347 765 -395 1155 -20 161 -17 596 5 745 22 147 71
        366 92 408 8 16 15 37 15 46 0 30 78 246 129 361 88 197 242 449 381 625 82
        104 362 384 465 465 248 196 592 387 861 480 242 83 550 146 804 164 97 7 391
        -4 530 -20z"/>

        <path fill="#FFB703" d="M3735 6759 c-204 -20 -495 -87 -667 -153 -124 -48 -398 -182 -398
        -195 0 -5 51 -44 113 -87 172 -119 330 -238 456 -342 105 -88 116 -95 140 -85
        14 6 71 29 126 51 127 52 239 81 338 89 l77 6 0 363 0 364 -47 -1 c-27 -1 -88
        -6 -138 -10z"/>

        <path fill="#FB8500" d="M4120 6406 l0 -366 34 0 c98 0 339 -67 458 -126 l66 -33 134 110
        c126 105 310 242 481 359 42 29 77 56 77 61 0 11 -137 80 -290 146 -265 115
        -546 182 -877 209 l-83 6 0 -366z"/>

        <path fill="#f4845f" d="M2435 6278 c-11 -6 -74 -55 -140 -107 -207 -165 -389 -360 -539 -575
        -74 -105 -136 -205 -136 -218 0 -5 127 -6 283 -2 290 7 563 -4 792 -30 84 -10
        124 -11 133 -4 7 6 33 43 59 82 53 81 158 206 238 285 45 45 53 57 43 69 -10
        12 -256 214 -316 260 -44 33 -388 253 -395 252 -1 0 -11 -6 -22 -12z"/>

        <path fill="#f27059" d="M5484 6232 c-211 -137 -320 -215 -472 -336 l-161 -129 109 -114 c64
        -67 137 -155 176 -216 38 -56 68 -103 69 -104 0 -1 82 6 180 16 225 24 568 32
        835 22 113 -5 206 -8 207 -7 7 6 -110 186 -182 281 -182 241 -307 371 -538
        553 -130 103 -119 101 -223 34z"/>

        <path fill="#f9dc5c" d="M3780 5815 c-154 -31 -337 -110 -451 -195 -97 -72 -227 -205 -288
        -293 -90 -130 -158 -315 -182 -494 -14 -103 -6 -287 16 -383 21 -89 95 -300
        106 -300 5 0 9 -5 9 -11 0 -24 118 -176 200 -259 653 -658 1776 -301 1936 615
        12 67 15 129 11 245 -5 163 -20 235 -81 394 -36 95 -158 277 -243 362 -161
        161 -420 293 -637 323 -103 15 -315 12 -396 -4z"/>

        <path fill="#95e7f9" d="M5691 5180 c-171 -9 -361 -27 -387 -37 -8 -3 -12 -13 -9 -22 17 -55
        46 -212 53 -295 5 -54 13 -101 18 -105 5 -5 59 -23 121 -40 377 -106 822 -296
        1183 -504 52 -31 99 -53 103 -50 12 7 -1 154 -28 319 -39 235 -111 494 -177
        636 -36 78 -23 74 -228 87 -232 16 -472 19 -649 11z"/>

        <path fill="#29d4ff" d="M1630 5166 c-64 -7 -121 -15 -127 -19 -34 -21 -171 -452 -203 -642
        -24 -138 -43 -320 -38 -362 l3 -32 100 60 c213 127 595 309 829 394 67 24 198
        67 291 95 94 29 174 56 179 61 5 4 15 54 22 111 7 57 23 147 35 201 12 53 19
        100 15 104 -33 33 -865 55 -1106 29z"/>

        <path fill="#ff9f1c"  d="M2530 4476 c-151 -47 -296 -99 -445 -158 -177 -70 -623 -301 -753
        -390 l-44 -30 22 -23 c32 -34 154 -92 235 -111 52 -12 98 -15 180 -11 131 6
        198 25 375 107 115 52 222 92 325 120 67 17 275 30 365 21 47 -4 86 -7 88 -6
        1 1 -22 53 -52 116 -48 102 -116 289 -116 322 0 29 -22 87 -33 87 -7 -1 -73
        -20 -147 -44z"/>

        <path fill="#ffbf69" d="M5352 4508 c-6 -7 -18 -47 -28 -87 -24 -106 -58 -199 -114 -312 -28
        -54 -50 -101 -50 -103 0 -3 71 -4 158 -4 240 1 370 -28 605 -139 298 -140 507
        -151 725 -38 37 19 77 42 90 52 l23 19 -88 56 c-307 196 -738 391 -1133 514
        -80 25 -152 48 -161 50 -8 3 -20 -1 -27 -8z"/>

        <path fill="#014f86"  d="M2505 3806 c-95 -19 -177 -47 -320 -113 -66 -30 -160 -69 -210 -86
        -83 -28 -103 -31 -249 -35 -176 -5 -242 6 -367 59 -37 16 -70 29 -73 29 -32 0
        71 -433 151 -635 50 -127 65 -148 130 -182 150 -79 296 -109 487 -100 179 9
        300 45 581 175 270 125 385 154 605 154 278 -1 480 -72 652 -231 206 -191 287
        -426 243 -714 -36 -241 -10 -355 109 -473 120 -117 277 -173 506 -181 290 -10
        498 54 790 244 63 42 142 96 175 121 92 71 295 262 295 278 0 11 -24 14 -129
        14 -204 0 -374 38 -499 112 -90 53 -193 162 -235 248 -47 97 -64 163 -77 313
        -18 209 -41 280 -117 374 -74 90 -167 143 -323 184 -80 21 -109 22 -450 24
        -387 1 -420 5 -580 56 -101 33 -253 112 -373 196 -128 88 -206 126 -320 154
        -106 26 -305 34 -402 15z"/>

        <path fill="#00b4d8" d="M5228 3809 c-194 -28 -378 -118 -531 -259 -5 -4 24 -20 65 -35 135
        -51 209 -96 289 -175 125 -125 176 -249 199 -486 27 -280 82 -382 250 -467
        113 -57 193 -70 410 -71 236 0 286 10 336 67 109 127 324 533 388 736 62 192
        138 523 123 537 -3 3 -41 -10 -84 -30 -86 -39 -218 -66 -319 -66 -155 0 -304
        37 -483 121 -260 122 -440 158 -643 128z"/>

        <path fill="#6fffe9" d="M3180 2883 c-159 -16 -283 -55 -500 -158 -181 -85 -333 -139 -463
        -161 -126 -23 -327 -22 -445 0 -51 10 -95 16 -98 14 -9 -10 120 -195 215 -308
        270 -322 549 -541 926 -725 274 -135 450 -190 790 -251 148 -27 178 -29 405
        -28 179 0 274 5 354 17 61 10 111 19 113 21 2 1 -34 17 -80 34 -165 63 -289
        157 -375 285 -72 109 -97 196 -96 332 1 61 10 150 19 200 39 205 -18 378 -176
        533 -83 81 -159 126 -268 157 -79 23 -232 47 -271 43 -8 -1 -31 -3 -50 -5z"/>

    </g>
</svg>
